<svg version="1.1" xmlns="http://www.w3.org/2000/svg" viewBox="0 0 225.78370467731443 268.78959615861754" width="225.78370467731443" height="268.78959615861754" class="excalidraw-svg"><!-- svg-source:excalidraw --><metadata></metadata><defs><style class="style-fonts">
      </style></defs><g stroke-linecap="round" transform="translate(10 10) rotate(0 102.89185233865722 124.39479807930877)"><path d="M32 0 C65.3 -1.55, 106.75 -3.19, 173.78 0 C195.77 1.26, 206.26 12.81, 205.78 32 C206.73 101.45, 210.75 174.46, 205.78 216.79 C206.44 237.35, 196.89 251.78, 173.78 248.79 C125.38 250.7, 82.28 249.73, 32 248.79 C8.19 250.74, -0.15 235.76, 0 216.79 C-0.96 149.59, -1.86 79.12, 0 32 C-1.87 7.18, 12.82 1.34, 32 0" stroke="none" stroke-width="0" fill="#ffffff"></path><path d="M32 0 C77.86 -0.27, 127.46 -1.72, 173.78 0 M32 0 C83.43 -0.82, 134.56 -0.85, 173.78 0 M173.78 0 C195.72 -0.58, 204.71 12.45, 205.78 32 M173.78 0 C194.87 0.94, 205.06 12.29, 205.78 32 M205.78 32 C205.38 105.51, 206.25 178.89, 205.78 216.79 M205.78 32 C204.25 76.46, 203.23 122.47, 205.78 216.79 M205.78 216.79 C203.98 236.8, 194.72 249.22, 173.78 248.79 M205.78 216.79 C206.94 237.38, 194.45 250.56, 173.78 248.79 M173.78 248.79 C125.4 248.34, 79.34 246.81, 32 248.79 M173.78 248.79 C144.75 249.88, 117.23 249.63, 32 248.79 M32 248.79 C8.76 250.5, 1.53 238.77, 0 216.79 M32 248.79 C10.51 249.34, 0.66 239.13, 0 216.79 M0 216.79 C-2.31 151.05, -1.27 87.12, 0 32 M0 216.79 C0.79 175.05, 1.16 132.03, 0 32 M0 32 C0.53 10.78, 8.93 -1.75, 32 0 M0 32 C1.28 11.09, 11.43 0.13, 32 0" stroke="#ffffff" stroke-width="4" fill="none"></path></g><g stroke-linecap="round" transform="translate(20.486052463434362 23.623710527111825) rotate(0 91.5725064263866 113.05053905459533)"><path d="M32 0 C74.07 4.9, 121.39 0.45, 151.15 0 C171.57 -1.16, 185.82 12.15, 183.15 32 C187.2 90.6, 184.68 145.24, 183.15 194.1 C184.56 214.36, 174.28 225.77, 151.15 226.1 C122.96 222.55, 98.67 225.93, 32 226.1 C7.65 225.2, 0.6 217.22, 0 194.1 C-0.76 149.24, -4.51 106.31, 0 32 C1.31 10.13, 14.13 0.02, 32 0" stroke="none" stroke-width="0" fill="#1e1e1e"></path><path d="M32 0 C56.05 -0.32, 82.34 2.62, 151.15 0 M32 0 C72.9 1.17, 114.46 1.74, 151.15 0 M151.15 0 C171.74 -0.57, 181.51 11.71, 183.15 32 M151.15 0 C171.08 -1.17, 182.76 12.71, 183.15 32 M183.15 32 C183.81 97.46, 184.86 159.36, 183.15 194.1 M183.15 32 C182.99 88.17, 183.57 141.98, 183.15 194.1 M183.15 194.1 C184.65 217.34, 173.09 227.13, 151.15 226.1 M183.15 194.1 C183.67 213.53, 174.74 224.19, 151.15 226.1 M151.15 226.1 C118.04 226.14, 84.3 226.99, 32 226.1 M151.15 226.1 C103.18 226.39, 56.09 226.61, 32 226.1 M32 226.1 C10.34 226.17, -0.4 216.65, 0 194.1 M32 226.1 C8.89 226.4, -1.37 215.11, 0 194.1 M0 194.1 C2.74 142.66, 2.48 91.76, 0 32 M0 194.1 C1.75 155.52, 1.73 117.64, 0 32 M0 32 C1.7 12.49, 9.36 -1.7, 32 0 M0 32 C-2.08 12.45, 10.97 -1.99, 32 0" stroke="#1e1e1e" stroke-width="2" fill="none"></path></g><g stroke-linecap="round" transform="translate(40.26574354683288 41.522147877692305) rotate(0 73.91670243572902 93.46113944565866)"><path d="M32 0 C58.71 0.31, 85.44 -4.73, 115.83 0 C136.53 2.56, 145.23 11.18, 147.83 32 C147.59 76.51, 147.89 117.32, 147.83 154.92 C151.04 178.61, 137.38 183.5, 115.83 186.92 C87.27 183.41, 63.48 184.67, 32 186.92 C9.03 188.34, -1.1 174.64, 0 154.92 C-3.41 114.43, -1.97 76.32, 0 32 C-3 7.82, 8.24 1.14, 32 0" stroke="none" stroke-width="0" fill="#e03131"></path><path d="M32 0 C62.18 1.05, 91.77 2.33, 115.83 0 M32 0 C58.01 -0.22, 83.98 -0.83, 115.83 0 M115.83 0 C138.16 1.38, 149.19 11.79, 147.83 32 M115.83 0 C137.02 2.05, 148.39 10.7, 147.83 32 M147.83 32 C148.3 55.76, 147.01 84.89, 147.83 154.92 M147.83 32 C147.04 63.62, 147.69 95.53, 147.83 154.92 M147.83 154.92 C146.69 176.23, 139 185.88, 115.83 186.92 M147.83 154.92 C148.21 175.05, 136.51 187.84, 115.83 186.92 M115.83 186.92 C82.67 185.34, 50.71 184.86, 32 186.92 M115.83 186.92 C96.74 187.08, 78.97 187.76, 32 186.92 M32 186.92 C12.05 186.05, -1.66 176.49, 0 154.92 M32 186.92 C10.33 186.16, 2.18 177.74, 0 154.92 M0 154.92 C1.37 112.2, 0.94 68.57, 0 32 M0 154.92 C1.09 114.01, 0.25 74.37, 0 32 M0 32 C-0.23 8.99, 8.74 -0.78, 32 0 M0 32 C0.72 9.07, 12.12 1.43, 32 0" stroke="#e03131" stroke-width="2" fill="none"></path></g><g stroke-linecap="round"><g transform="translate(63.0658027118255 138.5955757785498) rotate(0 39.2904534276799 -44.7287223230835)"><path d="M0.14 0.71 C13.25 -14.36, 66.64 -74.89, 79.83 -90.17 M-1.25 0.04 C11.65 -14.87, 65.87 -73.73, 79.16 -88.77" stroke="#1e1e1e" stroke-width="2" fill="none"></path></g></g><mask></mask><g stroke-linecap="round"><g transform="translate(61.75299780537769 140.67727232640027) rotate(0 43.175948344717305 -43.980052157197406)"><path d="M-0.36 -0.96 C12.89 -1.42, 66.87 12.24, 80.5 -2.68 C94.12 -17.59, 81.07 -75.68, 81.38 -90.44 M1.64 1.14 C14.73 0.36, 66.88 11.28, 80 -4.29 C93.12 -19.86, 79.88 -77.99, 80.36 -92.27" stroke="#1e1e1e" stroke-width="2" fill="none"></path></g></g><mask></mask><g stroke-linecap="round"><g transform="translate(63.915107110486616 143.02940075206857) rotate(0 52.57046638550643 28.486432839272652)"><path d="M-0.9 -1.1 C16.67 8.76, 88.07 48.11, 106.04 58.08 M0.83 0.93 C18.18 10.53, 87.47 46.88, 105.1 56.21" stroke="#1e1e1e" stroke-width="2" fill="none"></path></g></g><mask></mask><g stroke-linecap="round"><g transform="translate(71.84284122921935 210.78830892893484) rotate(0 35.63754801505454 -35.89213461702707)"><path d="M0.6 -1.16 C12.48 -13.21, 60.14 -60.7, 71.81 -72.64 M-0.54 0.85 C11.22 -11.03, 59.68 -59.31, 71.4 -71.43" stroke="#1e1e1e" stroke-width="2" fill="none"></path></g></g><mask></mask><g stroke-linecap="round" transform="translate(97.14782559942228 135.85981143318713) rotate(0 12.020202475057232 10.947774216528728)"><path d="M12.67 -0.16 C15.06 -0.15, 18.16 1.58, 20.13 3.29 C22.09 5, 24.24 7.81, 24.48 10.12 C24.72 12.42, 23.24 15.17, 21.58 17.13 C19.93 19.08, 17 21.2, 14.56 21.84 C12.12 22.47, 9.23 21.9, 6.96 20.91 C4.69 19.93, 2.08 18.07, 0.96 15.94 C-0.17 13.8, -0.51 10.45, 0.2 8.1 C0.9 5.76, 3.05 3.19, 5.19 1.88 C7.33 0.58, 11.74 0.55, 13.05 0.27 C14.36 -0.01, 12.97 0.07, 13.07 0.22 M13.09 0.05 C15.63 0.07, 19.33 1.56, 21.08 3.25 C22.83 4.93, 23.51 7.76, 23.58 10.18 C23.64 12.6, 22.88 15.96, 21.46 17.77 C20.05 19.58, 17.57 20.39, 15.07 21.01 C12.56 21.63, 8.84 22.35, 6.43 21.49 C4.02 20.63, 1.58 18, 0.61 15.84 C-0.35 13.68, -0.01 10.97, 0.64 8.52 C1.3 6.08, 2.58 2.69, 4.55 1.18 C6.52 -0.33, 11.13 -0.46, 12.46 -0.55 C13.78 -0.64, 12.39 0.23, 12.49 0.63" stroke="none" stroke-width="0" fill="#ffffff"></path><path d="M11.59 0.42 C14.02 0.25, 17.95 0.92, 19.91 2.27 C21.88 3.61, 23.01 6.17, 23.37 8.47 C23.73 10.77, 23.31 13.98, 22.08 16.06 C20.86 18.13, 18.3 20.05, 16.02 20.9 C13.73 21.75, 10.73 21.94, 8.37 21.16 C6 20.37, 3.14 18.15, 1.82 16.2 C0.5 14.26, 0.1 11.8, 0.45 9.5 C0.81 7.19, 1.99 3.91, 3.95 2.39 C5.91 0.86, 10.81 0.72, 12.2 0.35 C13.59 -0.02, 12.34 -0.04, 12.29 0.16 M11.8 0.54 C14.17 0.31, 16.99 1.48, 18.91 2.83 C20.83 4.17, 22.74 6.49, 23.31 8.62 C23.88 10.75, 23.5 13.44, 22.34 15.63 C21.17 17.82, 18.71 20.75, 16.32 21.77 C13.94 22.79, 10.57 22.61, 8.04 21.76 C5.52 20.91, 2.55 18.81, 1.15 16.68 C-0.26 14.56, -0.96 11.37, -0.38 9.03 C0.2 6.7, 2.74 4.06, 4.64 2.65 C6.53 1.25, 9.78 1.13, 11 0.62 C12.21 0.11, 11.69 -0.45, 11.94 -0.39" stroke="#1e1e1e" stroke-width="2" fill="none"></path></g><g stroke-linecap="round"><g transform="translate(74.93730993727485 212.12160097770925) rotate(0 34.5718029966437 -13.848767877355726)"><path d="M-1.16 -0.5 C2.19 -3.99, 7.92 -15.53, 19.83 -19.98 C31.74 -24.43, 62.18 -25.91, 70.3 -27.2 M0.44 -1.8 C4.16 -5.17, 10.36 -14.4, 21.98 -18.4 C33.6 -22.4, 62.38 -24.42, 70.14 -25.82" stroke="#1e1e1e" stroke-width="2" fill="none"></path></g></g><mask></mask></svg>